<svg width="50" height="50" viewBox="0 0 50 50" fill="none" xmlns="http://www.w3.org/2000/svg">
<path d="M16.9824 38.8086C16.9824 39.0039 16.7578 39.1602 16.4746 39.1602C16.1523 39.1895 15.9277 39.0332 15.9277 38.8086C15.9277 38.6133 16.1523 38.457 16.4355 38.457C16.7285 38.4277 16.9824 38.584 16.9824 38.8086ZM13.9453 38.3691C13.877 38.5645 14.0723 38.7891 14.3652 38.8477C14.6191 38.9453 14.9121 38.8477 14.9707 38.6523C15.0293 38.457 14.8438 38.2324 14.5508 38.1445C14.2969 38.0762 14.0137 38.1738 13.9453 38.3691ZM18.2617 38.2031C17.9785 38.2715 17.7832 38.457 17.8125 38.6816C17.8418 38.877 18.0957 39.0039 18.3887 38.9355C18.6719 38.8672 18.8672 38.6816 18.8379 38.4863C18.8086 38.3008 18.5449 38.1738 18.2617 38.2031ZM24.6875 0.78125C11.1426 0.78125 0.78125 11.0645 0.78125 24.6094C0.78125 35.4395 7.59766 44.707 17.334 47.9688C18.584 48.1934 19.0234 47.4219 19.0234 46.7871C19.0234 46.1816 18.9941 42.8418 18.9941 40.791C18.9941 40.791 12.1582 42.2559 10.7227 37.8809C10.7227 37.8809 9.60938 35.0391 8.00781 34.3066C8.00781 34.3066 5.77148 32.7734 8.16406 32.8027C8.16406 32.8027 10.5957 32.998 11.9336 35.3223C14.0723 39.0918 17.6562 38.0078 19.0527 37.3633C19.2773 35.8008 19.9121 34.7168 20.6152 34.0723C15.1562 33.4668 9.64844 32.6758 9.64844 23.2812C9.64844 20.5957 10.3906 19.248 11.9531 17.5293C11.6992 16.8945 10.8691 14.2773 12.207 10.8984C14.248 10.2637 18.9453 13.5352 18.9453 13.5352C20.8984 12.9883 22.998 12.7051 25.0781 12.7051C27.1582 12.7051 29.2578 12.9883 31.2109 13.5352C31.2109 13.5352 35.9082 10.2539 37.9492 10.8984C39.2871 14.2871 38.457 16.8945 38.2031 17.5293C39.7656 19.2578 40.7227 20.6055 40.7227 23.2812C40.7227 32.7051 34.9707 33.457 29.5117 34.0723C30.4102 34.8438 31.1719 36.3086 31.1719 38.6035C31.1719 41.8945 31.1426 45.9668 31.1426 46.7676C31.1426 47.4023 31.5918 48.1738 32.832 47.9492C42.5977 44.707 49.2188 35.4395 49.2188 24.6094C49.2188 11.0645 38.2324 0.78125 24.6875 0.78125ZM10.2734 34.4629C10.1465 34.5605 10.1758 34.7852 10.3418 34.9707C10.498 35.127 10.7227 35.1953 10.8496 35.0684C10.9766 34.9707 10.9473 34.7461 10.7812 34.5605C10.625 34.4043 10.4004 34.3359 10.2734 34.4629ZM9.21875 33.6719C9.15039 33.7988 9.24805 33.9551 9.44336 34.0527C9.59961 34.1504 9.79492 34.1211 9.86328 33.9844C9.93164 33.8574 9.83398 33.7012 9.63867 33.6035C9.44336 33.5449 9.28711 33.5742 9.21875 33.6719ZM12.3828 37.1484C12.2266 37.2754 12.2852 37.5684 12.5098 37.7539C12.7344 37.9785 13.0176 38.0078 13.1445 37.8516C13.2715 37.7246 13.2129 37.4316 13.0176 37.2461C12.8027 37.0215 12.5098 36.9922 12.3828 37.1484ZM11.2695 35.7129C11.1133 35.8105 11.1133 36.0645 11.2695 36.2891C11.4258 36.5137 11.6895 36.6113 11.8164 36.5137C11.9727 36.3867 11.9727 36.1328 11.8164 35.9082C11.6797 35.6836 11.4258 35.5859 11.2695 35.7129Z" fill="white"/>
</svg>
