<svg width="50" height="50" viewBox="0 0 50 50" fill="none" xmlns="http://www.w3.org/2000/svg">
<path d="M12.918 43.7498H3.84766V14.5408H12.918V43.7498ZM8.37793 10.5564C5.47754 10.5564 3.125 8.15405 3.125 5.25366C3.125 3.8605 3.67843 2.52439 4.66355 1.53928C5.64866 0.554164 6.98477 0.000732422 8.37793 0.000732422C9.77109 0.000732422 11.1072 0.554164 12.0923 1.53928C13.0774 2.52439 13.6309 3.8605 13.6309 5.25366C13.6309 8.15405 11.2773 10.5564 8.37793 10.5564ZM46.8652 43.7498H37.8145V29.531C37.8145 26.1423 37.7461 21.7966 33.0986 21.7966C28.3828 21.7966 27.6602 25.4783 27.6602 29.2869V43.7498H18.5996V14.5408H27.2988V18.5251H27.4258C28.6367 16.2302 31.5947 13.8083 36.0078 13.8083C45.1875 13.8083 46.875 19.8533 46.875 27.7048V43.7498H46.8652Z" fill="white"/>
</svg>
