<svg width="12" height="12" viewBox="0 0 12 12" fill="none" xmlns="http://www.w3.org/2000/svg">
<g clip-path="url(#clip0_11_2)">
<path fill-rule="evenodd" clip-rule="evenodd" d="M3.7325 0.533C4.319 0.506 4.506 0.5 6 0.5C7.494 0.5 7.681 0.5065 8.267 0.533C8.853 0.5595 9.253 0.653 9.603 0.7885C9.9695 0.927 10.302 1.1435 10.577 1.4235C10.857 1.698 11.073 2.03 11.211 2.397C11.347 2.747 11.44 3.147 11.467 3.732C11.494 4.3195 11.5 4.5065 11.5 6C11.5 7.494 11.4935 7.681 11.467 8.2675C11.4405 8.8525 11.347 9.2525 11.211 9.6025C11.073 9.96955 10.8566 10.3021 10.577 10.577C10.302 10.857 9.9695 11.073 9.603 11.211C9.253 11.347 8.853 11.44 8.268 11.467C7.681 11.494 7.494 11.5 6 11.5C4.506 11.5 4.319 11.4935 3.7325 11.467C3.1475 11.4405 2.7475 11.347 2.3975 11.211C2.03046 11.073 1.69791 10.8566 1.423 10.577C1.14319 10.3023 0.926657 9.96994 0.7885 9.603C0.653 9.253 0.56 8.853 0.533 8.268C0.506 7.6805 0.5 7.4935 0.5 6C0.5 4.506 0.5065 4.319 0.533 3.733C0.5595 3.147 0.653 2.747 0.7885 2.397C0.926861 2.03004 1.14356 1.69766 1.4235 1.423C1.69802 1.14325 2.03024 0.926722 2.397 0.7885C2.747 0.653 3.147 0.56 3.732 0.533H3.7325ZM8.2225 1.523C7.6425 1.4965 7.4685 1.491 6 1.491C4.5315 1.491 4.3575 1.4965 3.7775 1.523C3.241 1.5475 2.95 1.637 2.756 1.7125C2.4995 1.8125 2.316 1.931 2.1235 2.1235C1.94102 2.30103 1.80059 2.51714 1.7125 2.756C1.637 2.95 1.5475 3.241 1.523 3.7775C1.4965 4.3575 1.491 4.5315 1.491 6C1.491 7.4685 1.4965 7.6425 1.523 8.2225C1.5475 8.759 1.637 9.05 1.7125 9.244C1.8005 9.4825 1.941 9.699 2.1235 9.8765C2.301 10.059 2.5175 10.1995 2.756 10.2875C2.95 10.363 3.241 10.4525 3.7775 10.477C4.3575 10.5035 4.531 10.509 6 10.509C7.469 10.509 7.6425 10.5035 8.2225 10.477C8.759 10.4525 9.05 10.363 9.244 10.2875C9.5005 10.1875 9.684 10.069 9.8765 9.8765C10.059 9.699 10.1995 9.4825 10.2875 9.244C10.363 9.05 10.4525 8.759 10.477 8.2225C10.5035 7.6425 10.509 7.4685 10.509 6C10.509 4.5315 10.5035 4.3575 10.477 3.7775C10.4525 3.241 10.363 2.95 10.2875 2.756C10.1875 2.4995 10.069 2.316 9.8765 2.1235C9.69896 1.94104 9.48285 1.80061 9.244 1.7125C9.05 1.637 8.759 1.5475 8.2225 1.523V1.523ZM5.2975 7.6955C5.68983 7.85882 6.12669 7.88086 6.53346 7.75786C6.94024 7.63486 7.2917 7.37446 7.5278 7.02112C7.76391 6.66778 7.87003 6.24344 7.82802 5.82055C7.78602 5.39767 7.5985 5.00249 7.2975 4.7025C7.10562 4.51074 6.87361 4.36391 6.61817 4.27257C6.36273 4.18124 6.09021 4.14768 5.82025 4.17431C5.55028 4.20094 5.28958 4.28709 5.0569 4.42657C4.82423 4.56604 4.62537 4.75537 4.47465 4.98093C4.32393 5.20648 4.22509 5.46264 4.18526 5.73098C4.14542 5.99932 4.16558 6.27315 4.24427 6.53276C4.32296 6.79237 4.45824 7.0313 4.64036 7.23236C4.82248 7.43342 5.04691 7.59159 5.2975 7.6955ZM4.001 4.001C4.26351 3.73849 4.57516 3.53025 4.91815 3.38818C5.26114 3.24611 5.62875 3.17299 6 3.17299C6.37125 3.17299 6.73886 3.24611 7.08185 3.38818C7.42484 3.53025 7.73649 3.73849 7.999 4.001C8.26151 4.26351 8.46975 4.57516 8.61182 4.91815C8.75389 5.26114 8.82701 5.62875 8.82701 6C8.82701 6.37125 8.75389 6.73886 8.61182 7.08185C8.46975 7.42484 8.26151 7.73649 7.999 7.999C7.46883 8.52917 6.74977 8.82701 6 8.82701C5.25023 8.82701 4.53117 8.52917 4.001 7.999C3.47083 7.46883 3.17299 6.74977 3.17299 6C3.17299 5.25023 3.47083 4.53117 4.001 4.001V4.001ZM9.454 3.594C9.51905 3.53263 9.57113 3.45884 9.60715 3.37699C9.64317 3.29513 9.66241 3.20688 9.66371 3.11747C9.66501 3.02805 9.64836 2.93927 9.61474 2.85641C9.58112 2.77354 9.53122 2.69826 9.46798 2.63502C9.40474 2.57178 9.32946 2.52188 9.2466 2.48826C9.16373 2.45464 9.07495 2.43799 8.98553 2.43929C8.89612 2.4406 8.80787 2.45983 8.72601 2.49585C8.64416 2.53187 8.57037 2.58395 8.509 2.649C8.38966 2.77551 8.32432 2.94356 8.32685 3.11747C8.32939 3.29137 8.3996 3.45744 8.52258 3.58042C8.64556 3.7034 8.81163 3.77361 8.98553 3.77615C9.15944 3.77868 9.32749 3.71334 9.454 3.594V3.594Z" fill="white"/>
</g>
<defs>
<clipPath id="clip0_11_2">
<rect width="12" height="12" fill="white"/>
</clipPath>
</defs>
</svg>
